<svg xmlns="http://www.w3.org/2000/svg" width="93" height="56" viewBox="0 0 93 56"><rect width="100%" height="100%" fill="#DDDDDD"/><path fill="#999999" d="M20.45 25.545q0 1.03.54 1.57.53.54 1.5.54.51 0 .91-.17.4-.16.67-.44.28-.28.42-.66.14-.38.14-.83 0-.5-.16-.89-.15-.4-.43-.67t-.67-.42q-.38-.14-.84-.14-.48 0-.86.16-.38.15-.66.43-.27.29-.41.67-.15.39-.15.85Zm-1.02 8.6 3.81-4.77q.15-.18.27-.35.13-.17.25-.34-.42.27-.93.42-.51.14-1.08.14-.63 0-1.25-.23-.61-.22-1.08-.66-.48-.45-.77-1.11-.3-.66-.3-1.54 0-.83.31-1.55.31-.72.86-1.26.55-.55 1.32-.86.78-.32 1.71-.32.95 0 1.7.3t1.28.83q.53.54.82 1.29.28.74.28 1.64 0 .57-.09 1.08-.1.51-.28.98-.18.47-.43.92-.26.45-.57.89l-2.82 4.02q-.14.2-.43.34t-.66.14h-1.92Zm10.1-8.67-1.1-.2q.12-.88.49-1.55.37-.66.91-1.11.55-.45 1.26-.67.71-.23 1.53-.23.85 0 1.53.25.69.24 1.17.67.49.43.74 1 .26.58.26 1.25 0 .59-.13 1.04-.13.44-.38.77-.24.34-.61.56-.36.23-.82.39 1.1.35 1.65 1.06.54.71.54 1.79 0 .92-.34 1.63-.34.7-.92 1.18-.58.48-1.34.73-.76.25-1.61.25-.92 0-1.61-.22-.69-.21-1.2-.63-.51-.41-.87-1.02-.36-.6-.61-1.39l.93-.38q.36-.16.68-.08.32.07.46.34.16.3.34.59.18.29.44.51.25.23.6.37.34.14.82.14.53 0 .93-.18.4-.17.67-.45t.4-.63q.13-.34.13-.69 0-.44-.09-.8-.1-.36-.39-.62-.3-.25-.86-.4-.55-.14-1.49-.14v-1.5q.77-.01 1.28-.14.51-.14.82-.38.3-.24.42-.58.12-.34.12-.75 0-.87-.49-1.32-.48-.45-1.29-.45-.38 0-.69.11-.31.1-.57.29-.25.2-.42.45-.17.26-.25.56-.15.39-.38.52t-.66.06Zm20.91 5.86-1.11 1.09-2.88-2.88-2.91 2.9-1.11-1.1 2.9-2.91-2.77-2.77 1.11-1.11 2.77 2.77 2.75-2.75 1.12 1.1-2.76 2.77 2.89 2.89Zm8.94-7.58-.44 2.56q.41-.08.78-.12.38-.04.73-.04.97 0 1.71.29.73.29 1.24.8.5.51.75 1.19.26.69.26 1.48 0 .97-.35 1.78-.34.81-.95 1.38-.61.58-1.45.89-.84.32-1.83.32-.57 0-1.09-.12-.52-.12-.98-.32-.45-.2-.84-.46-.38-.26-.69-.55l.65-.89q.2-.29.53-.29.21 0 .44.14.22.13.5.29.29.16.67.3.39.14.93.14.58 0 1.02-.19.45-.19.74-.52.29-.34.44-.8.15-.47.15-1.01 0-1-.58-1.57-.58-.56-1.72-.56-.88 0-1.8.32l-1.31-.37 1.02-5.97h6.07v.89q0 .45-.28.73-.28.28-.95.28h-3.37Zm14.05-1.9-3.64 4.46-.43.53q.36-.18.77-.28.41-.1.89-.1.7 0 1.36.23.66.23 1.16.7.5.46.8 1.15.31.69.31 1.6 0 .86-.31 1.62-.32.75-.89 1.31-.57.56-1.37.88-.8.33-1.77.33-.99 0-1.77-.32-.78-.31-1.34-.88-.55-.56-.84-1.36-.29-.79-.29-1.76 0-.87.35-1.78.35-.92 1.09-1.9l2.93-3.94q.16-.2.45-.35.29-.14.67-.14h1.87Zm-3.17 10.71q.51 0 .93-.17.42-.17.72-.48.3-.3.47-.72.17-.41.17-.89 0-.53-.16-.95-.16-.42-.46-.71-.3-.3-.71-.45-.42-.15-.92-.15t-.91.17q-.41.17-.7.47-.29.3-.45.71-.16.42-.16.89 0 .51.14.93.14.42.42.72.27.3.68.46.41.17.94.17Z"/></svg>